<?xml version="1.0" encoding="UTF-8" standalone="no"?>
<svg xmlns="http://www.w3.org/2000/svg" width="1200" height="740" viewBox="0 0 1200 740">
  <defs>
    <filter id="shadow" x="-5%" y="-5%" width="120%" height="120%">
      <feDropShadow dx="0" dy="4" stdDeviation="6" flood-color="#0F172A" flood-opacity="0.05"/>
    </filter>

    <marker id="arrow" viewBox="0 0 10 10" refX="9" refY="5" markerWidth="6" markerHeight="6" orient="auto">
      <path d="M0,0 L10,5 L0,10 z" fill="#94A3B8"/>
    </marker>
    <marker id="arrow-blue" viewBox="0 0 10 10" refX="9" refY="5" markerWidth="6" markerHeight="6" orient="auto">
      <path d="M0,0 L10,5 L0,10 z" fill="#60A5FA"/>
    </marker>
  </defs>

  <rect width="1200" height="740" fill="#F8FAFC"/>

  <text x="600" y="50" text-anchor="middle" font-family="'PingFang SC', 'Microsoft YaHei', sans-serif" font-size="28" font-weight="800" fill="#0F172A">图 1 反诈卫士总体解决方案示意图</text>

  <g transform="translate(80, 90)">
    <rect width="1040" height="130" rx="16" fill="#F0F9FF" stroke="#BAE6FD" stroke-width="2"/>
    <text x="30" y="35" font-family="'PingFang SC', sans-serif" font-size="18" font-weight="800" fill="#0284C7">交互入口层</text>

    <g transform="translate(60, 40)" filter="url(#shadow)">
      <rect width="220" height="60" rx="10" fill="#FFFFFF" stroke="#E2E8F0" stroke-width="1.5"/>
      <rect x="12" y="15" width="4" height="30" rx="2" fill="#3B82F6"/>
      <text x="110" y="36" text-anchor="middle" font-family="'PingFang SC', sans-serif" font-size="16" font-weight="700" fill="#1E293B">用户侧服务端</text>
    </g>

    <g transform="translate(410, 40)" filter="url(#shadow)">
      <rect width="220" height="60" rx="10" fill="#FFFFFF" stroke="#E2E8F0" stroke-width="1.5"/>
      <rect x="12" y="15" width="4" height="30" rx="2" fill="#3B82F6"/>
      <text x="110" y="36" text-anchor="middle" font-family="'PingFang SC', sans-serif" font-size="16" font-weight="700" fill="#1E293B">Android 主动守护端</text>
    </g>

    <g transform="translate(760, 40)" filter="url(#shadow)">
      <rect width="220" height="60" rx="10" fill="#FFFFFF" stroke="#E2E8F0" stroke-width="1.5"/>
      <rect x="12" y="15" width="4" height="30" rx="2" fill="#3B82F6"/>
      <text x="110" y="36" text-anchor="middle" font-family="'PingFang SC', sans-serif" font-size="16" font-weight="700" fill="#1E293B">管理员治理端</text>
    </g>
  </g>


  <g transform="translate(80, 260)">
    <rect width="1040" height="220" rx="16" fill="#F5F3FF" stroke="#DDD6FE" stroke-width="2"/>
    <text x="30" y="35" font-family="'PingFang SC', sans-serif" font-size="18" font-weight="800" fill="#7C3AED">核心业务层</text>

    <g transform="translate(60, 40)" filter="url(#shadow)">
      <rect width="220" height="60" rx="10" fill="#FFFFFF" stroke="#E2E8F0" stroke-width="1.5"/>
      <rect x="12" y="15" width="4" height="30" rx="2" fill="#8B5CF6"/>
      <text x="110" y="36" text-anchor="middle" font-family="'PingFang SC', sans-serif" font-size="16" font-weight="700" fill="#1E293B">多模态分析</text>
    </g>

    <g transform="translate(410, 40)" filter="url(#shadow)">
      <rect width="220" height="60" rx="10" fill="#EEF2FF" stroke="#A78BFA" stroke-width="2"/>
      <rect x="12" y="15" width="4" height="30" rx="2" fill="#7C3AED"/>
      <text x="110" y="36" text-anchor="middle" font-family="'PingFang SC', sans-serif" font-size="16" font-weight="800" fill="#4C1D95">风险判断与报告生成</text>
    </g>

    <g transform="translate(760, 40)" filter="url(#shadow)">
      <rect width="220" height="60" rx="10" fill="#FFFFFF" stroke="#E2E8F0" stroke-width="1.5"/>
      <rect x="12" y="15" width="4" height="30" rx="2" fill="#8B5CF6"/>
      <text x="110" y="36" text-anchor="middle" font-family="'PingFang SC', sans-serif" font-size="16" font-weight="700" fill="#1E293B">案例治理与知识沉淀</text>
    </g>

    <g transform="translate(235, 130)" filter="url(#shadow)">
      <rect width="220" height="60" rx="10" fill="#FFFFFF" stroke="#E2E8F0" stroke-width="1.5"/>
      <rect x="12" y="15" width="4" height="30" rx="2" fill="#8B5CF6"/>
      <text x="110" y="36" text-anchor="middle" font-family="'PingFang SC', sans-serif" font-size="16" font-weight="700" fill="#1E293B">主动提醒与家庭联防</text>
    </g>

    <g transform="translate(585, 130)" filter="url(#shadow)">
      <rect width="220" height="60" rx="10" fill="#FFFFFF" stroke="#E2E8F0" stroke-width="1.5"/>
      <rect x="12" y="15" width="4" height="30" rx="2" fill="#8B5CF6"/>
      <text x="110" y="36" text-anchor="middle" font-family="'PingFang SC', sans-serif" font-size="16" font-weight="700" fill="#1E293B">历史归档与用户记忆</text>
    </g>
  </g>


  <g transform="translate(80, 520)">
    <rect width="1040" height="130" rx="16" fill="#FFF7ED" stroke="#FED7AA" stroke-width="2"/>
    <text x="30" y="35" font-family="'PingFang SC', sans-serif" font-size="18" font-weight="800" fill="#EA580C">数据与知识层</text>

    <g transform="translate(35, 40)" filter="url(#shadow)">
      <rect width="210" height="60" rx="10" fill="#FFFFFF" stroke="#E2E8F0" stroke-width="1.5"/>
      <rect x="12" y="15" width="4" height="30" rx="2" fill="#F59E0B"/>
      <text x="105" y="36" text-anchor="middle" font-family="'PingFang SC', sans-serif" font-size="15" font-weight="700" fill="#1E293B">用户业务数据</text>
    </g>

    <g transform="translate(285, 40)" filter="url(#shadow)">
      <rect width="210" height="60" rx="10" fill="#FFFFFF" stroke="#E2E8F0" stroke-width="1.5"/>
      <rect x="12" y="15" width="4" height="30" rx="2" fill="#F59E0B"/>
      <text x="105" y="36" text-anchor="middle" font-family="'PingFang SC', sans-serif" font-size="15" font-weight="700" fill="#1E293B">历史案件知识库</text>
    </g>

    <g transform="translate(535, 40)" filter="url(#shadow)">
      <rect width="210" height="60" rx="10" fill="#FFFFFF" stroke="#E2E8F0" stroke-width="1.5"/>
      <rect x="12" y="15" width="4" height="30" rx="2" fill="#F59E0B"/>
      <text x="105" y="36" text-anchor="middle" font-family="'PingFang SC', sans-serif" font-size="15" font-weight="700" fill="#1E293B">用户个人历史记忆</text>
    </g>

    <g transform="translate(785, 40)" filter="url(#shadow)">
      <rect width="210" height="60" rx="10" fill="#FFFFFF" stroke="#E2E8F0" stroke-width="1.5"/>
      <rect x="12" y="15" width="4" height="30" rx="2" fill="#F59E0B"/>
      <text x="105" y="36" text-anchor="middle" font-family="'PingFang SC', sans-serif" font-size="15" font-weight="700" fill="#1E293B">缓存与会话支撑</text>
    </g>
  </g>


  <path d="M 250 190 L 250 290" fill="none" stroke="#60A5FA" stroke-width="2.5" marker-end="url(#arrow-blue)"/>
  <path d="M 600 190 L 600 290" fill="none" stroke="#60A5FA" stroke-width="2.5" marker-end="url(#arrow-blue)"/>
  <path d="M 950 190 L 950 290" fill="none" stroke="#60A5FA" stroke-width="2.5" marker-end="url(#arrow-blue)"/>

  <path d="M 360 330 L 480 330" fill="none" stroke="#94A3B8" stroke-width="2.5" marker-end="url(#arrow)"/>
  
  <path d="M 490 330 Q 425 330, 425 380" fill="none" stroke="#94A3B8" stroke-width="2.5" marker-end="url(#arrow)"/>
  <path d="M 710 330 Q 775 330, 775 380" fill="none" stroke="#94A3B8" stroke-width="2.5" marker-end="url(#arrow)"/>
  
  <path d="M 840 330 Q 775 330, 775 380" fill="none" stroke="#8B5CF6" stroke-width="2.5" stroke-dasharray="6 4" marker-end="url(#arrow)"/>
  <text x="815" y="320" font-family="'PingFang SC', sans-serif" font-size="13" font-weight="600" fill="#7C3AED">治理反馈持续优化</text>

  <path d="M 250 360 C 250 460, 220 460, 220 550" fill="none" stroke="#94A3B8" stroke-width="2.5" marker-end="url(#arrow)"/>
  
  <path d="M 600 360 C 600 460, 470 460, 470 550" fill="none" stroke="#94A3B8" stroke-width="2.5" marker-end="url(#arrow)"/>
  <path d="M 600 360 C 600 460, 720 460, 720 550" fill="none" stroke="#94A3B8" stroke-width="2.5" marker-end="url(#arrow)"/>
  
  <path d="M 950 360 C 950 460, 970 460, 970 550" fill="none" stroke="#94A3B8" stroke-width="2.5" marker-end="url(#arrow)"/>
  
  <path d="M 775 450 C 775 500, 720 500, 720 550" fill="none" stroke="#94A3B8" stroke-width="2.5" marker-end="url(#arrow)"/>

</svg>
