<svg xmlns="http://www.w3.org/2000/svg" viewBox="0 0 280 400" width="100%" height="100%">
  <defs>
    <filter id="cardShadow2" x="-10%" y="-10%" width="120%" height="120%">
      <feDropShadow dx="0" dy="6" stdDeviation="12" flood-color="#0F172A" flood-opacity="0.08" />
    </filter>
    <clipPath id="cardClip2">
      <rect width="260" height="380" rx="16" />
    </clipPath>
  </defs>

  <g transform="translate(10, 10)">
    <rect width="260" height="380" rx="16" fill="#FFFFFF" filter="url(#cardShadow2)" />
    <g clip-path="url(#cardClip2)">
      <rect width="260" height="8" fill="#06B6D4" />
      
      <circle cx="130" cy="90" r="44" fill="#CFFAFE" />
      <path d="M95,95 L130,65 L165,95 V125 H95 Z" fill="none" stroke="#22D3EE" stroke-width="5" stroke-linejoin="round" />
      <path d="M130,110 A8,8 0 0,0 114,100 A8,8 0 0,0 130,120 L130,120 A8,8 0 0,0 146,100 A8,8 0 0,0 130,110 Z" fill="#06B6D4" />
      
      <text x="130" y="170" font-family="sans-serif" font-size="14" font-weight="bold" fill="#94A3B8" text-anchor="middle" letter-spacing="1">业务模式 2</text>
      <text x="130" y="205" font-family="sans-serif" font-size="22" font-weight="bold" fill="#1E293B" text-anchor="middle">家庭守护服务</text>
      
      <line x1="90" y1="230" x2="170" y2="230" stroke="#E2E8F0" stroke-width="2" />
      
      <text x="130" y="270" font-family="sans-serif" font-size="14" fill="#475569" text-anchor="middle">提供高风险联动提醒</text>
      <text x="130" y="295" font-family="sans-serif" font-size="14" fill="#475569" text-anchor="middle">和协同守护能力。</text>
    </g>
  </g>
</svg>
