<svg xmlns="http://www.w3.org/2000/svg" viewBox="0 0 1200 700" width="100%" height="100%">
  <defs>
    <filter id="box-shadow" x="-2%" y="-2%" width="104%" height="104%">
      <feDropShadow dx="0" dy="2" stdDeviation="4" flood-color="#000" flood-opacity="0.05" />
    </filter>
  </defs>

  <rect width="1200" height="700" fill="#F4F6F9" />

  <rect width="1200" height="60" fill="#FFFFFF" />
  <path d="M30,20 L40,40 L50,20 Z" fill="#3B82F6" />
  <path d="M35,30 L45,30 L40,40 Z" fill="#2563EB" />
  <text x="60" y="38" font-family="sans-serif" font-size="18" font-weight="bold" fill="#111827">SENTINEL AI</text>

  <text x="220" y="35" font-family="sans-serif" font-size="14" fill="#4B5563">用户管理</text>
  <text x="310" y="35" font-family="sans-serif" font-size="14" fill="#4B5563">地区案件统计</text>
  <text x="420" y="35" font-family="sans-serif" font-size="14" fill="#4B5563">全景分析</text>
  
  <text x="510" y="35" font-family="sans-serif" font-size="14" font-weight="bold" fill="#2563EB">案件审核</text>
  <rect x="500" y="58" width="75" height="2" fill="#2563EB" /> <text x="600" y="35" font-family="sans-serif" font-size="14" fill="#4B5563">案件库</text>
  <text x="670" y="35" font-family="sans-serif" font-size="14" fill="#4B5563">管理助手</text>

  <rect x="1100" y="15" width="30" height="30" rx="15" fill="#DBEAFE" />
  <text x="1115" y="35" font-family="sans-serif" font-size="12" fill="#2563EB" text-anchor="middle">YY</text>
  <text x="1140" y="35" font-family="sans-serif" font-size="14" fill="#4B5563">yyz</text>

  <text x="80" y="120" font-family="sans-serif" font-size="28" font-weight="bold" fill="#111827">案件审核</text>

  <rect x="80" y="150" width="1040" height="150" rx="8" fill="#FFFFFF" filter="url(#box-shadow)" />
  
  <text x="110" y="190" font-family="sans-serif" font-size="14" fill="#4B5563">采集主题</text>
  <rect x="110" y="205" width="650" height="40" rx="4" fill="#FFFFFF" stroke="#D1D5DB" stroke-width="1" />
  <text x="125" y="230" font-family="sans-serif" font-size="14" fill="#9CA3AF">例如：冒充客服退款诈骗、虚假投资理财诈骗</text>

  <text x="790" y="190" font-family="sans-serif" font-size="14" fill="#4B5563">案件数量</text>
  <rect x="790" y="205" width="120" height="40" rx="4" fill="#FFFFFF" stroke="#D1D5DB" stroke-width="1" />
  <text x="805" y="230" font-family="sans-serif" font-size="14" fill="#111827">5</text>

  <rect x="940" y="205" width="150" height="40" rx="4" fill="#3B82F6" />
  <text x="1015" y="230" font-family="sans-serif" font-size="14" font-weight="bold" fill="#FFFFFF" text-anchor="middle">后台采集案件</text>

  <text x="110" y="275" font-family="sans-serif" font-size="12" fill="#6B7280">任务会在后台逐条搜索并写入待审核案件库，无需等待页面返回结果。</text>

  <rect x="80" y="320" width="1040" height="350" rx="8" fill="#FFFFFF" filter="url(#box-shadow)" />
  
  <g font-family="sans-serif" font-size="13" font-weight="bold" fill="#6B7280">
    <text x="110" y="360">记录ID</text>
    <text x="210" y="360">标题</text>
    <text x="440" y="350">目标</text>
    <text x="440" y="368">人群</text>
    <text x="500" y="350">风险</text>
    <text x="500" y="368">等级</text>
    <text x="570" y="350">诈骗</text>
    <text x="570" y="368">类型</text>
    <text x="650" y="360">涉及法律</text>
    <text x="900" y="360">提交时间</text>
    <text x="1050" y="360">操作</text>
  </g>
  <line x1="80" y1="385" x2="1120" y2="385" stroke="#E5E7EB" stroke-width="1" />

  <g font-family="sans-serif" font-size="13" fill="#4B5563">
    <text x="110" y="420">PREV-</text>
    <text x="110" y="440">1C97D80...</text>
    <text x="210" y="420" font-weight="bold" fill="#111827">96110反诈中心真</text>
    <text x="210" y="440" font-weight="bold" fill="#111827">实预警电话案例</text>
    <text x="445" y="430">中年</text>
    
    <rect x="500" y="415" width="30" height="20" rx="2" fill="#D1FAE5" />
    <text x="515" y="430" fill="#065F46" text-anchor="middle">低</text>
    
    <text x="570" y="420">其他</text>
    <text x="570" y="440">诈骗类</text>
    
    <text x="650" y="430">涉嫌违反《中华人民共和国刑法》第二百...</text>
    
    <text x="900" y="420">2026/3/22</text>
    <text x="900" y="440">21:22:15</text>
  </g>
  <line x1="80" y1="465" x2="1120" y2="465" stroke="#E5E7EB" stroke-width="1" />

  <g font-family="sans-serif" font-size="13" fill="#4B5563">
    <text x="110" y="500">PREV-</text>
    <text x="110" y="520">429AE4C...</text>
    <text x="210" y="490" font-weight="bold" fill="#111827">财务人员收到冒</text>
    <text x="210" y="510" font-weight="bold" fill="#111827">充老板微信指令</text>
    <text x="210" y="530" font-weight="bold" fill="#111827">及时核实避免损失</text>
    <text x="445" y="510">青年</text>
    
    <rect x="500" y="495" width="30" height="20" rx="2" fill="#FEE2E2" />
    <text x="515" y="510" fill="#991B1B" text-anchor="middle">高</text>
    
    <text x="570" y="490">冒充</text>
    <text x="570" y="510">领导</text>
    <text x="570" y="530">熟人类</text>
    
    <text x="650" y="510">涉嫌违反《中华人民共和国刑法》第二百...</text>
    
    <text x="900" y="500">2026/3/22</text>
    <text x="900" y="520">21:19:20</text>
  </g>
  <line x1="80" y1="550" x2="1120" y2="550" stroke="#E5E7EB" stroke-width="1" />

  <g font-family="sans-serif" font-size="13" fill="#4B5563">
    <text x="110" y="585">PREV-</text>
    <text x="110" y="605">8FF617E...</text>
    <text x="210" y="575" font-weight="bold" fill="#111827">财务人员正确核</text>
    <text x="210" y="595" font-weight="bold" fill="#111827">实老板微信付款</text>
    <text x="210" y="615" font-weight="bold" fill="#111827">指令避免50万损...</text>
    <text x="445" y="595">中年</text>
    
    <rect x="500" y="580" width="30" height="20" rx="2" fill="#FEE2E2" />
    <text x="515" y="595" fill="#991B1B" text-anchor="middle">高</text>
    
    <text x="570" y="575">冒充</text>
    <text x="570" y="595">领导</text>
    <text x="570" y="615">熟人类</text>
    
    <text x="650" y="595">涉嫌违反《中华人民共和国刑法》第二百...</text>
    
    <text x="900" y="585">2026/3/22</text>
    <text x="900" y="605">21:11:04</text>
  </g>
</svg>
