<svg xmlns="http://www.w3.org/2000/svg" viewBox="0 0 1000 600" width="100%" height="100%">
  <defs>
    <pattern id="grid" width="30" height="30" patternUnits="userSpaceOnUse">
      <path d="M 30 0 L 0 0 0 30" fill="none" stroke="#1E293B" stroke-width="0.5"/>
    </pattern>
    <linearGradient id="panelBg" x1="0%" y1="0%" x2="0%" y2="100%">
      <stop offset="0%" stop-color="#111827" stop-opacity="0.8"/>
      <stop offset="100%" stop-color="#0F172A" stop-opacity="0.8"/>
    </linearGradient>
  </defs>

  <rect width="1000" height="600" fill="#0B1120" />
  <rect width="1000" height="600" fill="url(#grid)" />

  <text x="30" y="40" font-family="sans-serif" font-size="12" fill="#94A3B8" letter-spacing="2">USER REGION CASE STATS</text>
  <text x="30" y="70" font-family="sans-serif" font-size="24" font-weight="bold" fill="#F8FAFC">用户地区案件统计</text>
  
  <rect x="30" y="85" width="100" height="26" rx="4" fill="#1E293B" />
  <text x="80" y="102" font-family="sans-serif" font-size="12" fill="#94A3B8" text-anchor="middle">&lt; 返回全景分析</text>

  <g transform="translate(680, 40)">
    <rect x="0" y="0" width="70" height="30" rx="4" fill="#1E293B" />
    <text x="35" y="19" font-family="sans-serif" font-size="12" fill="#CBD5E1" text-anchor="middle">今日新增</text>
    
    <rect x="75" y="0" width="50" height="30" rx="4" fill="#06B6D4" />
    <text x="100" y="19" font-family="sans-serif" font-size="12" fill="#FFFFFF" text-anchor="middle">近7天</text>
    
    <rect x="130" y="0" width="60" height="30" rx="4" fill="#1E293B" />
    <text x="160" y="19" font-family="sans-serif" font-size="12" fill="#CBD5E1" text-anchor="middle">近30天</text>
    
    <rect x="195" y="0" width="60" height="30" rx="4" fill="#1E293B" />
    <text x="225" y="19" font-family="sans-serif" font-size="12" fill="#CBD5E1" text-anchor="middle">全历史</text>
    
    <rect x="260" y="0" width="50" height="30" rx="4" fill="#1E293B" />
    <text x="285" y="19" font-family="sans-serif" font-size="12" fill="#CBD5E1" text-anchor="middle">刷新</text>
  </g>

  <rect x="30" y="130" width="650" height="440" fill="url(#panelBg)" stroke="#1E293B" stroke-width="1" />
  <text x="50" y="160" font-family="sans-serif" font-size="12" fill="#38BDF8">地区案件地图</text>
  <text x="50" y="185" font-family="sans-serif" font-size="18" font-weight="bold" fill="#F8FAFC">河北省城市案件统计</text>

  <g transform="translate(430, 150)">
    <rect x="0" y="0" width="70" height="28" rx="4" fill="#1E293B" />
    <text x="35" y="18" font-family="sans-serif" font-size="12" fill="#CBD5E1" text-anchor="middle">省级总览</text>
    
    <rect x="75" y="0" width="70" height="28" rx="4" fill="#D946EF" />
    <text x="110" y="18" font-family="sans-serif" font-size="12" fill="#FFFFFF" text-anchor="middle">城市钻取</text>
    
    <rect x="150" y="0" width="70" height="28" rx="4" fill="#1E293B" />
    <text x="185" y="18" font-family="sans-serif" font-size="12" fill="#64748B" text-anchor="middle">县区钻取</text>
    
    <rect x="225" y="0" width="70" height="28" rx="4" fill="#1E293B" />
    <text x="260" y="18" font-family="sans-serif" font-size="12" fill="#CBD5E1" text-anchor="middle">返回全国</text>
  </g>

  <g transform="translate(350, 360) scale(1.6)">
    <path d="M0,-80 L30,-100 L40,-80 L80,-90 L100,-70 L90,-30 L130,-20 L120,10 L90,20 L100,50 L70,80 L50,60 L20,90 L-10,80 L-20,120 L-40,130 L-60,110 L-50,70 L-80,50 L-70,20 L-50,10 L-60,-20 L-30,-40 L-10,-20 Z" fill="none" stroke="#1D4ED8" stroke-width="1.2" stroke-linejoin="round" />
    <path d="M-30,-40 L0,-10 L30,-30 M0,-10 L-20,30 L20,50 M-50,10 L-20,30 M40,-80 L30,-30 L90,-30 M30,-30 L20,50 M70,80 L40,110 M-50,70 L-20,90 L-10,80 M20,50 L50,60" fill="none" stroke="#1E3A8A" stroke-width="0.8" />
    
    <circle cx="-35" cy="35" r="10" fill="#F43F5E" opacity="0.3" />
    <circle cx="-35" cy="35" r="4" fill="#F43F5E" />
  </g>

  <rect x="700" y="130" width="135" height="80" fill="url(#panelBg)" stroke="#1E293B" stroke-width="1" />
  <text x="715" y="155" font-family="sans-serif" font-size="12" fill="#94A3B8">定位用户</text>
  <text x="715" y="190" font-family="sans-serif" font-size="28" font-weight="bold" fill="#F8FAFC">2</text>

  <rect x="845" y="130" width="135" height="80" fill="url(#panelBg)" stroke="#1E293B" stroke-width="1" />
  <text x="860" y="155" font-family="sans-serif" font-size="12" fill="#94A3B8">历史案件</text>
  <text x="860" y="190" font-family="sans-serif" font-size="28" font-weight="bold" fill="#F8FAFC">22</text>

  <rect x="700" y="220" width="280" height="350" fill="url(#panelBg)" stroke="#1E293B" stroke-width="1" />
  <text x="715" y="250" font-family="sans-serif" font-size="12" fill="#94A3B8">河北省城市案件排行</text>
  
  <rect x="715" y="265" width="250" height="32" rx="4" fill="#0F172A" />
  <circle cx="730" cy="281" r="5" fill="none" stroke="#64748B" stroke-width="1.5" />
  <path d="M734,285 L738,289" stroke="#64748B" stroke-width="1.5" />
  <text x="745" y="285" font-family="sans-serif" font-size="12" fill="#64748B">搜索城市</text>

  <rect x="715" y="310" width="250" height="90" rx="4" fill="none" stroke="#E2E8F0" stroke-width="1" />
  <text x="730" y="335" font-family="sans-serif" font-size="12" fill="#94A3B8" font-weight="bold" letter-spacing="1">TOP 1</text>
  <text x="730" y="360" font-family="sans-serif" font-size="16" font-weight="bold" fill="#F8FAFC">石家庄市</text>
  
  <text x="945" y="340" font-family="sans-serif" font-size="24" font-weight="bold" fill="#F8FAFC" text-anchor="end">4</text>
  
  <rect x="730" y="370" width="75" height="20" rx="2" fill="#1E293B" />
  <text x="767" y="384" font-family="sans-serif" font-size="10" fill="#CBD5E1" text-anchor="middle">其他诈骗类 - 3</text>
  
  <rect x="810" y="370" width="75" height="20" rx="2" fill="#1E293B" />
  <text x="847" y="384" font-family="sans-serif" font-size="10" fill="#CBD5E1" text-anchor="middle">冒充客服类 - 1</text>
  
  <rect x="915" y="345" width="40" height="18" rx="2" fill="#4C1D95" opacity="0.6"/>
  <text x="935" y="357" font-family="sans-serif" font-size="10" fill="#FCA5A5" text-anchor="middle">高风险</text>
  
  <text x="955" y="375" font-family="sans-serif" font-size="10" fill="#94A3B8" text-anchor="end">下降: -71.4%</text>
  
  <rect x="905" y="380" width="50" height="16" rx="2" fill="#0369A1" />
  <text x="930" y="391" font-family="sans-serif" font-size="10" fill="#E0F2FE" text-anchor="middle">查看摘要</text>
</svg>
